<?xml version="1.0" encoding="UTF-8" standalone="no"?>
<!DOCTYPE svg PUBLIC "-//W3C//DTD SVG 1.1//EN" "http://www.w3.org/Graphics/SVG/1.1/DTD/svg11.dtd">
<svg version="1.1" xmlns="http://www.w3.org/2000/svg" xmlns:xlink="http://www.w3.org/1999/xlink" preserveAspectRatio="xMidYMid meet" viewBox="0 0 640 640" width="640" height="640"><defs><path d="M389.48 126.39L390.47 126.49L391.45 126.63L401.39 128.25L401.65 128.3L401.9 128.35L402.16 128.4L402.41 128.47L402.66 128.54L402.91 128.61L403.16 128.69L403.4 128.78L403.64 128.87L403.88 128.96L404.12 129.06L404.35 129.17L404.58 129.28L404.81 129.4L405.04 129.52L405.26 129.65L405.48 129.78L405.69 129.92L405.91 130.06L406.12 130.21L406.32 130.36L406.53 130.52L406.72 130.68L406.92 130.84L407.11 131.01L407.3 131.19L407.48 131.37L407.66 131.55L407.84 131.74L408.01 131.93L408.18 132.13L408.34 132.33L408.5 132.53L408.65 132.74L408.8 132.95L408.95 133.17L409.09 133.39L409.22 133.61L409.35 133.84L409.48 134.07L411.18 137.33L412.82 140.55L414.41 143.72L415.93 146.84L417.39 149.9L418.78 152.92L420.12 155.89L421.39 158.82L422.61 161.69L423.76 164.51L424.85 167.28L425.88 170.01L426.85 172.69L427.76 175.31L428.6 177.89L429.39 180.42L430.11 182.9L430.77 185.33L431.37 187.71L431.91 190.04L432.39 192.33L432.81 194.56L433.16 196.75L433.46 198.88L433.69 200.97L433.86 203.01L433.97 205L434.02 206.93L434.01 208.83L433.93 210.67L433.8 212.46L433.6 214.2L433.34 215.9L433.02 217.54L432.64 219.14L432.2 220.68L431.7 222.18L431.14 223.63L430.51 225.03L429.82 226.38L429.04 227.55L428.05 228.56L426.86 229.44L425.48 230.18L423.93 230.79L422.21 231.28L420.34 231.66L418.33 231.94L416.19 232.13L413.93 232.23L411.56 232.24L409.1 232.19L406.56 232.08L403.94 231.91L401.26 231.7L398.53 231.44L395.77 231.16L392.97 230.86L390.16 230.54L387.35 230.21L384.55 229.88L381.76 229.57L379 229.27L376.29 229L373.63 228.77L371.03 228.57L368.51 228.43L366.08 228.34L363.75 228.32L361.53 228.37L359.43 228.51L357.46 228.73L355.64 229.05L353.97 229.48L352.47 230.03L351.16 230.69L350.03 231.49L349.1 232.43L348.39 233.51L347.9 234.74L347.63 236.17L347.64 237.5L347.93 238.73L348.48 239.87L349.26 240.93L350.28 241.9L351.51 242.8L352.93 243.62L354.54 244.39L356.33 245.1L358.26 245.75L360.34 246.35L362.54 246.92L364.86 247.45L367.27 247.94L369.76 248.41L372.33 248.87L374.94 249.3L377.6 249.73L380.27 250.16L382.96 250.59L385.64 251.02L388.31 251.47L390.94 251.94L393.52 252.43L396.04 252.95L398.48 253.51L400.82 254.1L403.06 254.75L405.18 255.44L407.17 256.2L409 257.01L410.66 257.9L412.15 258.86L413.45 259.89L414.53 261.02L415.39 262.23L416.01 263.54L416.39 264.95L416.49 266.47L416.42 267.82L416.26 269.21L416.02 270.64L415.69 272.1L415.28 273.6L414.79 275.14L414.21 276.72L413.54 278.34L412.79 279.99L411.96 281.68L411.04 283.41L410.03 285.17L408.94 286.98L407.77 288.82L406.51 290.7L405.17 292.61L403.74 294.56L402.23 296.56L400.63 298.58L398.95 300.65L397.18 302.76L395.33 304.9L393.4 307.08L391.37 309.29L389.27 311.55L387.08 313.84L384.8 316.17L382.44 318.54L380 320.94L377.47 323.38L374.86 325.86L372.16 328.38L369.37 330.94L366.5 333.53L363.55 336.16L360.51 338.83L357.52 341.43L358.89 341.23L361.61 340.82L364.33 340.38L367.05 339.91L369.77 339.41L372.49 338.87L375.22 338.31L377.95 337.72L380.68 337.09L383.41 336.44L386.15 335.76L388.89 335.04L391.62 334.29L394.37 333.52L397.11 332.71L399.86 331.88L402.6 331.01L405.35 330.11L408.11 329.18L410.86 328.22L413.62 327.24L416.38 326.22L419.14 325.17L421.9 324.09L424.67 322.98L427.43 321.83L430.2 320.66L432.97 319.46L433.26 319.35L433.54 319.25L433.82 319.17L434.11 319.1L434.39 319.06L434.67 319.02L434.95 319.01L435.23 319.01L435.51 319.02L435.78 319.05L436.05 319.09L436.32 319.15L436.58 319.22L436.84 319.3L437.09 319.39L437.34 319.5L437.58 319.62L437.82 319.75L438.04 319.9L438.26 320.05L438.48 320.22L438.68 320.39L438.87 320.58L439.06 320.77L439.24 320.98L439.4 321.19L439.56 321.41L439.7 321.64L439.83 321.88L439.95 322.13L440.06 322.38L440.16 322.64L440.24 322.91L440.3 323.18L440.36 323.46L440.39 323.74L440.42 324.03L440.42 324.33L440.41 324.63L440.39 324.93L439.66 331.28L439.53 332.26L439.36 333.24L439.16 334.2L438.92 335.15L438.65 336.08L438.34 337L438 337.9L437.63 338.79L437.23 339.65L436.8 340.5L436.34 341.33L435.85 342.14L435.34 342.93L434.79 343.7L434.22 344.45L433.62 345.17L433 345.88L432.36 346.56L431.68 347.21L430.99 347.84L430.28 348.45L429.54 349.03L428.78 349.58L428.01 350.11L427.21 350.61L426.39 351.08L425.56 351.52L424.71 351.93L423.84 352.31L422.96 352.66L422.06 352.97L421.15 353.26L420.23 353.51L419.29 353.73L418.34 353.92L417.38 354.06L416.41 354.18L415.43 354.26L414.44 354.3L413.44 354.3L226.03 351.37L225.18 351.34L224.34 351.27L223.51 351.17L222.69 351.03L221.88 350.86L221.09 350.66L220.31 350.42L219.55 350.15L218.8 349.86L218.07 349.53L217.35 349.17L216.66 348.79L215.98 348.38L215.32 347.94L214.68 347.47L214.06 346.98L213.46 346.47L212.88 345.93L212.33 345.37L211.79 344.79L211.29 344.19L210.8 343.57L210.35 342.93L209.91 342.27L209.51 341.59L209.13 340.89L208.78 340.18L208.46 339.46L208.17 338.71L207.91 337.96L207.68 337.19L207.48 336.41L207.31 335.62L207.18 334.82L207.08 334L207.01 333.18L206.98 332.35L206.99 331.52L207.03 330.67L207.11 329.82L207.77 324.07L207.81 323.76L207.87 323.46L207.94 323.17L208.02 322.89L208.12 322.61L208.23 322.34L208.35 322.08L208.48 321.82L208.62 321.58L208.78 321.34L208.94 321.11L209.12 320.89L209.3 320.68L209.49 320.47L209.7 320.28L209.91 320.1L210.12 319.92L210.35 319.76L210.58 319.61L210.82 319.47L211.07 319.34L211.32 319.22L211.57 319.11L211.83 319.01L212.1 318.93L212.37 318.85L212.64 318.79L212.92 318.75L213.2 318.71L213.48 318.69L213.76 318.68L214.05 318.69L214.34 318.71L214.62 318.74L214.91 318.78L215.2 318.85L215.48 318.92L215.77 319.01L216.05 319.12L216.34 319.24L219.01 320.45L221.68 321.64L224.35 322.79L227.02 323.91L229.69 325L232.37 326.06L235.04 327.09L237.72 328.08L240.4 329.05L243.07 329.99L245.75 330.89L248.43 331.77L251.11 332.61L253.79 333.42L256.47 334.21L259.15 334.96L261.84 335.68L264.52 336.37L267.21 337.03L269.89 337.66L272.58 338.26L275.27 338.83L277.96 339.37L280.64 339.87L283.33 340.35L286.03 340.79L288.72 341.21L288.93 341.24L286.15 338.83L283.12 336.16L280.16 333.53L277.29 330.94L274.51 328.38L271.81 325.86L269.2 323.38L266.67 320.94L264.22 318.54L261.86 316.17L259.59 313.84L257.4 311.55L255.29 309.29L253.27 307.08L251.34 304.9L249.48 302.76L247.72 300.65L246.04 298.58L244.44 296.56L242.93 294.56L241.5 292.61L240.16 290.7L238.9 288.82L237.72 286.98L236.63 285.17L235.63 283.41L234.71 281.68L233.88 279.99L233.13 278.34L232.46 276.72L231.88 275.14L231.39 273.6L230.97 272.1L230.65 270.64L230.41 269.21L230.25 267.82L230.18 266.47L230.28 264.95L230.65 263.54L231.28 262.23L232.14 261.02L233.22 259.89L234.52 258.86L236 257.9L237.67 257.01L239.5 256.2L241.49 255.44L243.6 254.75L245.85 254.1L248.19 253.51L250.63 252.95L253.15 252.43L255.73 251.94L258.36 251.47L261.02 251.02L263.71 250.59L266.39 250.16L269.07 249.73L271.73 249.3L274.34 248.87L276.9 248.41L279.4 247.94L281.81 247.45L284.13 246.92L286.33 246.35L288.41 245.75L290.34 245.1L292.12 244.39L293.74 243.62L295.16 242.8L296.39 241.9L297.41 240.93L298.19 239.87L298.74 238.73L299.02 237.5L299.04 236.17L298.77 234.74L298.28 233.51L297.57 232.43L296.64 231.49L295.51 230.69L294.19 230.03L292.7 229.48L291.03 229.05L289.21 228.73L287.24 228.51L285.14 228.37L282.92 228.32L280.59 228.34L278.15 228.43L275.63 228.57L273.04 228.77L270.38 229L267.66 229.27L264.91 229.57L262.12 229.88L259.32 230.21L256.5 230.54L253.7 230.86L250.9 231.16L248.14 231.44L245.41 231.7L242.73 231.91L240.11 232.08L237.57 232.19L235.1 232.24L232.74 232.23L230.48 232.13L228.34 231.94L226.33 231.66L224.46 231.28L222.74 230.79L221.19 230.18L219.81 229.44L218.62 228.56L217.63 227.55L216.84 226.38L216.16 225.03L215.53 223.63L214.97 222.18L214.47 220.68L214.02 219.14L213.64 217.54L213.32 215.9L213.07 214.2L212.87 212.46L212.74 210.67L212.66 208.83L212.65 206.93L212.7 205L212.81 203.01L212.98 200.97L213.21 198.88L213.51 196.75L213.86 194.56L214.28 192.33L214.76 190.04L215.3 187.71L215.9 185.33L216.56 182.9L217.28 180.42L218.07 177.89L218.91 175.31L219.82 172.69L220.79 170.01L221.82 167.28L222.91 164.51L224.06 161.69L225.27 158.82L226.55 155.89L227.89 152.92L229.28 149.9L230.74 146.84L232.26 143.72L233.84 140.55L235.49 137.33L237.19 134.07L237.32 133.84L237.45 133.61L237.58 133.39L237.72 133.17L237.87 132.95L238.01 132.74L238.17 132.53L238.33 132.33L238.49 132.13L238.66 131.93L238.83 131.74L239 131.55L239.18 131.37L239.37 131.19L239.56 131.01L239.75 130.84L239.94 130.68L240.14 130.52L240.34 130.36L240.55 130.21L240.76 130.06L240.97 129.92L241.19 129.78L241.41 129.65L241.63 129.52L241.86 129.4L242.08 129.28L242.32 129.17L242.55 129.06L242.79 128.96L243.03 128.87L243.27 128.78L243.51 128.69L243.76 128.61L244.01 128.54L244.26 128.47L244.51 128.4L244.76 128.35L245.02 128.3L245.28 128.25L255.21 126.63L256.2 126.49L257.19 126.39L258.17 126.32L259.15 126.3L260.12 126.3L261.08 126.35L262.04 126.43L262.99 126.54L263.94 126.69L264.87 126.88L265.79 127.1L266.71 127.35L267.61 127.63L268.5 127.94L269.37 128.29L270.23 128.67L271.08 129.07L271.91 129.51L272.72 129.98L273.52 130.47L274.29 131L275.05 131.55L275.79 132.13L276.51 132.73L277.2 133.36L277.88 134.02L278.53 134.7L279.15 135.41L279.75 136.14L280.33 136.89L280.88 137.67L281.4 138.47L281.9 139.29L282.36 140.13L282.8 141L283.2 141.88L283.58 142.78L283.92 143.71L284.22 144.65L284.5 145.61L323.33 291.78L362.17 145.61L362.44 144.65L362.75 143.71L363.09 142.78L363.47 141.88L363.87 141L364.31 140.13L364.77 139.29L365.27 138.47L365.79 137.67L366.34 136.89L366.91 136.14L367.51 135.41L368.14 134.7L368.79 134.02L369.46 133.36L370.16 132.73L370.88 132.13L371.62 131.55L372.37 131L373.15 130.47L373.95 129.98L374.76 129.51L375.59 129.07L376.44 128.67L377.3 128.29L378.17 127.94L379.06 127.63L379.96 127.35L380.87 127.1L381.8 126.88L382.73 126.69L383.67 126.54L384.62 126.43L385.58 126.35L386.55 126.3L387.52 126.3L388.5 126.32L389.48 126.39Z" id="a1vV3v9fgq"></path></defs><g><g><g><use xlink:href="#a1vV3v9fgq" opacity="1" fill="#efe04c" fill-opacity="1"></use></g></g></g></svg>